#!OML:ASF G:\ViconDB\ViconDB\414\test\team2\shane.ASF
:FULLY-SPECIFIED
:DEGREES
189
root 4.50853 16.1589 -5.46136 -5.02888 1.09064 -4.13027
lowerback 5.82071 7.45228 4.33063
upperback 1.53486 10.142 -4.76841
thorax -0.00743599 5.15974 -7.82433
lowerneck -10.5543 -12.5678 -14.1069
upperneck 9.55641 -18.3976 23.1891
head 8.37566 -7.97102 7.71272
rclavicle 3.24019e-014 -7.95139e-015
rhumerus -29.0729 15.1803 -97.8042
rradius 38.0663
rwrist 30.4692
rhand -32.8781 -14.7813
rfingers 7.12502
rthumb -6.09654 -44.6736
lclavicle 3.24019e-014 -7.95139e-015
lhumerus -43.1869 -3.18432 78.4797
lradius 22.1293
lwrist -14.9267
lhand -37.7064 8.74362
lfingers 7.12502
lthumb -10.7561 38.4482
rfemur 41.8408 -5.1447 19.1572
rtibia -6.67916e-014
rfoot -2.45185 2.95004
rtoes -27.3326
lfemur -26.5784 4.65374 -14.2384
ltibia 44.1204
lfoot -17.8068 -11.596
ltoes -1.26872
190
root 4.53554 16.1951 -5.25408 -5.01815 1.17 -4.15291
lowerback 5.84993 7.42169 4.285
upperback 1.5575 10.099 -4.82091
thorax -0.00517096 5.13931 -7.8568
lowerneck -11.0157 -12.6263 -14.0744
upperneck 9.80854 -18.503 23.2301
head 8.56647 -7.97188 7.68368
rclavicle 3.3197e-014 -3.18055e-015
rhumerus -29.7585 14.5145 -98.3706
rradius 36.942
rwrist 30.2724
rhand -32.748 -15.8125
rfingers 7.12502
rthumb -5.97089 -45.7083
lclavicle 3.3197e-014 -3.18055e-015
lhumerus -42.5172 -2.09344 78.2584
lradius 21.7583
lwrist -15.2211
lhand -38.4124 9.42915
lfingers 7.12502
lthumb -11.437 39.0972
rfemur 42.0707 -4.93686 19.1985
rtibia -3.49861e-014
rfoot 1.20791 2.97861
rtoes -25.7865
lfemur -25.8024 5.23103 -14.3113
ltibia 44.2133
lfoot -18.4261 -12.2635
ltoes -0.831877
191
root 4.5631 16.235 -5.04711 -4.95059 1.20892 -4.08317
lowerback 5.76004 7.38582 4.0789
upperback 1.60964 10.0372 -4.82391
thorax 0.0530485 5.10959 -7.72931
lowerneck -11.4559 -12.6261 -14.0639
upperneck 10.098 -18.5204 23.2256
head 8.74474 -7.93482 7.66177
rclavicle -2.88238e-014 1.43125e-014
rhumerus -30.1267 13.5378 -98.5753
rradius 35.4958
rwrist 30.5184
rhand -32.4218 -15.9061
rfingers 7.12502
rthumb -5.65599 -45.8107
lclavicle -2.88238e-014 1.43125e-014
lhumerus -41.8596 -1.13526 78.3205
lradius 21.3402
lwrist -14.8274
lhand -39.359 9.50577
lfingers 7.12502
lthumb -12.3498 39.121
rfemur 42.1172 -4.73303 19.2355
rtibia 5.40694e-014
rfoot 5.13929 2.83842
rtoes -24.8998
lfemur -25.0376 5.83897 -14.482
ltibia 44.1768
lfoot -19.1681 -12.6996
ltoes -0.815523
192
root 4.58931 16.2762 -4.84671 -4.94236 1.24711 -3.93393
lowerback 5.78819 7.30035 3.85065
upperback 1.66801 9.90999 -4.90212
thorax 0.0527262 5.04611 -7.68569
lowerneck -11.932 -12.5659 -13.9433
upperneck 10.2349 -18.4523 23.3035
head 8.8628 -7.85231 7.66416
rclavicle -1.31993e-013 1.11319e-014
rhumerus -30.2464 12.144 -98.8167
rradius 33.751
rwrist 31.2516
rhand -32.1827 -15.6985
rfingers 7.12502
rthumb -5.42511 -45.609
lclavicle -1.31993e-013 1.11319e-014
lhumerus -41.2413 -0.363548 78.382
lradius 20.9765
lwrist -14.829
lhand -39.9287 9.70548
lfingers 7.12502
lthumb -12.8991 39.2868
rfemur 37.372 -4.67027 19.099
rtibia 10.5083
rfoot 3.67947 1.96503
rtoes -23.0745
lfemur -24.1413 6.30556 -14.7209
ltibia 44.0427
lfoot -19.8759 -13.0205
ltoes -0.767517
193
root 4.61541 16.3155 -4.65063 -4.92265 1.48087 -3.8878
lowerback 5.81077 7.15395 3.65602
upperback 1.76654 9.70406 -4.85355
thorax 0.0680122 4.94251 -7.52227
lowerneck -12.4054 -12.5213 -13.8702
upperneck 10.4432 -18.3712 23.1757
head 8.97883 -7.77633 7.60484
rclavicle 9.34288e-015 3.18055e-015
rhumerus -30.4607 11.4331 -98.8612
rradius 32.439
rwrist 31.6942
rhand -31.4999 -15.8693
rfingers 7.12502
rthumb -4.76581 -45.7957
lclavicle 9.34288e-015 3.18055e-015
lhumerus -40.6789 0.431067 78.6039
lradius 20.663
lwrist -15.0765
lhand -40.4378 9.7798
lfingers 7.12502
lthumb -13.3898 39.3295
rfemur 33.3601 -5.31574 18.652
rtibia 19.276
rfoot 3.35841 1.64085
rtoes -20.6643
lfemur -23.2953 6.73599 -14.8506
ltibia 43.8556
lfoot -20.5681 -13.5746
ltoes -0.724497
194
root 4.64488 16.3468 -4.46496 -5.03662 1.75788 -3.9142
lowerback 6.09994 6.90694 3.55633
upperback 1.88408 9.37242 -4.73186
thorax -0.0589082 4.7712 -7.36911
lowerneck -12.9106 -12.4543 -13.751
upperneck 10.6728 -18.2425 22.9269
head 9.07801 -7.682 7.50322
rclavicle -6.65929e-014 3.33958e-014
rhumerus -30.6044 10.6325 -98.7882
rradius 31.0481
rwrist 32.5859
rhand -31.0228 -15.2882
rfingers 7.12502
rthumb -4.30516 -45.2244
lclavicle -6.65929e-014 3.33958e-014
lhumerus -39.944 0.916969 79.1298
lradius 20.248
lwrist -14.9395
lhand -40.5683 9.90309
lfingers 7.12502
lthumb -13.5156 39.4445
rfemur 30.4676 -6.19853 18.1178
rtibia 25.7303
rfoot 4.26736 1.41034
rtoes -17.2757
lfemur -22.3546 7.00587 -14.9038
ltibia 43.6721
lfoot -21.2177 -13.9688
ltoes -0.563017
195
root 4.663 16.3786 -4.28862 -4.98794 2.45094 -3.7846
lowerback 6.30509 6.53367 3.1347
upperback 1.95719 8.8488 -4.5893
thorax -0.265254 4.49617 -7.00213
lowerneck -13.3589 -12.3514 -13.9154
upperneck 10.9713 -18.0513 22.7969
head 9.22112 -7.56451 7.50908
rclavicle -1.1291e-013 4.92986e-014
rhumerus -30.6931 9.17618 -98.2659
rradius 29.736
rwrist 34.458
rhand -30.2087 -14.4246
rfingers 7.12502
rthumb -3.51902 -44.3753
lclavicle -1.1291e-013 4.92986e-014
lhumerus -39.3996 1.81927 79.5028
lradius 19.7917
lwrist -15.5794
lhand -40.8496 9.86489
lfingers 7.12502
lthumb -13.7866 39.3881
rfemur 27.7857 -7.6611 17.3935
rtibia 31.2309
rfoot 5.71564 0.860567
rtoes -13.8077
lfemur -21.7106 7.02148 -15.1484
ltibia 43.5273
lfoot -21.7948 -14.6014
ltoes -0.226967
196
root 4.68941 16.3955 -4.11188 -5.07592 2.90759 -3.5438
lowerback 6.52014 6.2109 2.68546
upperback 2.15902 8.39313 -4.48086
thorax -0.322503 4.264 -6.64249
lowerneck -13.7888 -12.2714 -14.071
upperneck 11.0376 -17.8788 22.823
head 9.30692 -7.4568 7.56232
rclavicle 7.4743e-014 -2.22639e-014
rhumerus -30.7192 8.14564 -97.9127
rradius 28.8285
rwrist 35.4138
rhand -29.3773 -13.8589
rfingers 7.12502
rthumb -2.71606 -43.8214
lclavicle 7.4743e-014 -2.22639e-014
lhumerus -38.9204 1.84722 80.3262
lradius 19.716
lwrist -15.4
lhand -41.0714 9.8018
lfingers 7.12502
lthumb -14.0004 39.3103
rfemur 25.503 -8.75286 16.5729
rtibia 36.1695
rfoot 6.88736 -0.393683
rtoes -10.9748
lfemur -20.8993 6.9553 -15.4966
ltibia 43.4509
lfoot -22.4915 -14.7686
ltoes -0.346112
197
root 4.71476 16.4025 -3.93846 -5.18288 3.38078 -3.4701
lowerback 6.78343 5.86958 2.5133
upperback 2.36268 7.93102 -4.37833
thorax -0.357343 4.03203 -6.44238
lowerneck -14.2985 -12.204 -14.0573
upperneck 11.3116 -17.7441 22.6231
head 9.43891 -7.36117 7.50032
rclavicle 7.15625e-014 -4.13472e-014
rhumerus -30.8413 7.58668 -97.5568
rradius 28.0984
rwrist 36.6929
rhand -28.6477 -13.211
rfingers 7.12502
rthumb -2.01148 -43.1812
lclavicle 7.15625e-014 -4.13472e-014
lhumerus -38.1139 2.67489 80.6392
lradius 19.2197
lwrist -16.4019
lhand -40.9154 9.1276
lfingers 7.12502
lthumb -13.85 38.6465
rfemur 23.4148 -10.1327 15.7847
rtibia 40.695
rfoot 6.44961 -2.06422
rtoes -9.57452
lfemur -20.1131 6.83942 -15.663
ltibia 43.4234
lfoot -23.0519 -14.913
ltoes -0.537406
198
root 4.73943 16.4123 -3.76559 -5.29155 3.70884 -3.48567
lowerback 7.04186 5.55093 2.35763
upperback 2.53783 7.49977 -4.15903
thorax -0.425161 3.81242 -6.12824
lowerneck -14.6426 -12.0288 -14.1631
upperneck 11.365 -17.4246 22.5483
head 9.45636 -7.19797 7.54337
rclavicle -1.46504e-013 4.77083e-014
rhumerus -30.875 6.3782 -96.9985
rradius 27.2454
rwrist 38.1131
rhand -28.1626 -12.7016
rfingers 7.12502
rthumb -1.54293 -42.6758
lclavicle -1.46504e-013 4.77083e-014
lhumerus -37.5388 2.61692 81.5281
lradius 19.0627
lwrist -16.5394
lhand -40.8581 9.24376
lfingers 7.12502
lthumb -13.7949 38.7664
rfemur 21.4407 -11.3707 15.209
rtibia 44.7828
rfoot 5.04767 -4.5822
rtoes -9.51654
lfemur -19.4328 6.70594 -15.6759
ltibia 43.4992
lfoot -23.4207 -15.0177
ltoes -0.565639
